<svg xmlns="http://www.w3.org/2000/svg" viewBox="0 0 24 24" width="512" height="512">
  <path fill="currentColor" d="M19,5h-2V4c0-1.1-0.9-2-2-2h-1c-1.1,0-2,0.9-2,2v1H8V4c0-1.1-0.9-2-2-2H5C3.9,2,3,2.9,3,4v1H1c-0.55,0-1,0.45-1,1
	c0,0.55,0.45,1,1,1h2v10H1c-0.55,0-1,0.45-1,1c0,0.55,0.45,1,1,1h2v1c0,1.1,0.9,2,2,2h1c1.1,0,2-0.9,2-2v-1h4v1c0,1.1,0.9,2,2,2
	h1c1.1,0,2-0.9,2-2v-1h2c0.55,0,1-0.45,1-1c0-0.55-0.45-1-1-1h-2V7h2c0.55,0,1-0.45,1-1C20,5.45,19.55,5,19,5z M6,19H5v-1h1V19z
	 M8,17H4V7h4V17z M19,19h-1v-1h1V19z M20,17h-4V7h4V17z"/>
</svg>